HIERARCHY
ROOT root
{
  OFFSET 0.0 0.0 0.0
  CHANNELS 6 Xposition Yposition Zposition Zrotation Xrotation Yrotation
  JOINT joint01
  {
    OFFSET 20.0 0.0 0.0
    CHANNELS 3 Zrotation Xrotation Yrotation
    JOINT joint02
    {
      OFFSET 0.0 20.0 0.0
      CHANNELS 3 Zrotation Xrotation Yrotation
      JOINT joint03
      {
        OFFSET 0.0 0.0 20.0
        CHANNELS 3 Zrotation Xrotation Yrotation
        End Site
        {
          OFFSET 0.0 20.0 20.0
        }
      }
    }
  }
}
MOTION
Frames:	15
Frame Time:	0.5
0.0 0.0 0.0 0.0 0.0 0.0 0.0 0.0 0.0 0.0 0.0 0.0 0.0 0.0 0.0 
0.0 0.0 0.0 90.0 0.0 0.0 0.0 0.0 0.0 0.0 0.0 0.0 0.0 0.0 0.0 
0.0 0.0 0.0 180.0 0.0 0.0 0.0 0.0 0.0 0.0 0.0 0.0 0.0 0.0 0.0 
0.0 0.0 0.0 270.0 0.0 0.0 0.0 0.0 0.0 0.0 0.0 0.0 0.0 0.0 0.0 
0.0 0.0 0.0 360.0 0.0 0.0 0.0 0.0 0.0 0.0 0.0 0.0 0.0 0.0 0.0 
0.0 0.0 0.0 360.0 0.0 0.0 0.0 45.0 0.0 0.0 0.0 0.0 0.0 0.0 0.0 
0.0 0.0 0.0 360.0 0.0 0.0 0.0 90.0 0.0 0.0 0.0 0.0 0.0 0.0 0.0 
0.0 0.0 0.0 360.0 0.0 0.0 0.0 90.0 0.0 0.0 0.0 180.0 0.0 0.0 0.0 
0.0 0.0 0.0 360.0 0.0 0.0 0.0 90.0 0.0 0.0 0.0 360.0 0.0 0.0 0.0
0.0 0.0 0.0 360.0 0.0 0.0 0.0 90.0 0.0 0.0 0.0 360.0 0.0 60.0 0.0
0.0 0.0 0.0 360.0 0.0 0.0 0.0 90.0 0.0 0.0 0.0 360.0 0.0 120.0 0.0
0.0 0.0 0.0 360.0 0.0 0.0 0.0 90.0 0.0 0.0 0.0 360.0 0.0 180.0 0.0
0.0 0.0 0.0 360.0 0.0 0.0 0.0 90.0 0.0 0.0 0.0 360.0 0.0 240.0 0.0
0.0 0.0 0.0 360.0 0.0 0.0 0.0 90.0 0.0 0.0 0.0 360.0 0.0 300.0 0.0
0.0 0.0 0.0 360.0 0.0 0.0 0.0 90.0 0.0 0.0 0.0 360.0 0.0 360.0 0.0
